<mxfile host="Electron" modified="2024-09-07T06:23:27.835Z" agent="Mozilla/5.0 (X11; Linux x86_64) AppleWebKit/537.36 (KHTML, like Gecko) draw.io/24.6.4 Chrome/124.0.6367.207 Electron/30.0.6 Safari/537.36" etag="vpduE1XWRPuTHj9xYux2" version="24.6.4" type="device">
  <diagram name="Page-1" id="tfllTDOA8vSFeczdXibH">
    <mxGraphModel dx="1434" dy="839" grid="1" gridSize="10" guides="1" tooltips="1" connect="1" arrows="1" fold="1" page="1" pageScale="1" pageWidth="850" pageHeight="1100" math="0" shadow="0">
      <root>
        <mxCell id="0" />
        <mxCell id="1" parent="0" />
        <mxCell id="QywiRvyQ8ClWAGQjCXVQ-21" value="Message Broker" style="shape=mxgraph.ibm.box;prType=region;fontStyle=0;verticalAlign=top;align=left;spacingLeft=32;spacingTop=4;fillColor=none;rounded=0;whiteSpace=wrap;html=1;strokeColor=#919191;strokeWidth=1;dashed=0;container=1;spacing=-4;collapsible=0;expand=0;recursiveResize=0;" vertex="1" parent="1">
          <mxGeometry x="250" y="330" width="430" height="340" as="geometry" />
        </mxCell>
        <mxCell id="QywiRvyQ8ClWAGQjCXVQ-8" style="edgeStyle=orthogonalEdgeStyle;rounded=0;orthogonalLoop=1;jettySize=auto;html=1;entryX=0;entryY=0.5;entryDx=0;entryDy=0;" edge="1" parent="1" source="QywiRvyQ8ClWAGQjCXVQ-2" target="QywiRvyQ8ClWAGQjCXVQ-6">
          <mxGeometry relative="1" as="geometry" />
        </mxCell>
        <mxCell id="QywiRvyQ8ClWAGQjCXVQ-2" value="leishmaniasis.giemsa" style="strokeWidth=1;outlineConnect=0;dashed=0;align=center;html=1;fontSize=12;shape=mxgraph.eip.messageChannel;verticalLabelPosition=bottom;labelBackgroundColor=#ffffff;verticalAlign=top;" vertex="1" parent="1">
          <mxGeometry x="500" y="370" width="160" height="20" as="geometry" />
        </mxCell>
        <mxCell id="QywiRvyQ8ClWAGQjCXVQ-9" style="edgeStyle=orthogonalEdgeStyle;rounded=0;orthogonalLoop=1;jettySize=auto;html=1;entryX=0;entryY=0.5;entryDx=0;entryDy=0;" edge="1" parent="1" source="QywiRvyQ8ClWAGQjCXVQ-4" target="QywiRvyQ8ClWAGQjCXVQ-7">
          <mxGeometry relative="1" as="geometry" />
        </mxCell>
        <mxCell id="QywiRvyQ8ClWAGQjCXVQ-4" value="malaria.romanowsky" style="strokeWidth=1;outlineConnect=0;dashed=0;align=center;html=1;fontSize=12;shape=mxgraph.eip.messageChannel;verticalLabelPosition=bottom;labelBackgroundColor=#ffffff;verticalAlign=top;" vertex="1" parent="1">
          <mxGeometry x="500" y="480" width="160" height="20" as="geometry" />
        </mxCell>
        <mxCell id="QywiRvyQ8ClWAGQjCXVQ-12" style="edgeStyle=orthogonalEdgeStyle;rounded=0;orthogonalLoop=1;jettySize=auto;html=1;entryX=0;entryY=0.5;entryDx=0;entryDy=0;" edge="1" parent="1" source="QywiRvyQ8ClWAGQjCXVQ-5" target="QywiRvyQ8ClWAGQjCXVQ-11">
          <mxGeometry relative="1" as="geometry" />
        </mxCell>
        <mxCell id="QywiRvyQ8ClWAGQjCXVQ-5" value="mock.spots" style="strokeWidth=1;outlineConnect=0;dashed=0;align=center;html=1;fontSize=12;shape=mxgraph.eip.messageChannel;verticalLabelPosition=bottom;labelBackgroundColor=#ffffff;verticalAlign=top;" vertex="1" parent="1">
          <mxGeometry x="500" y="590" width="160" height="20" as="geometry" />
        </mxCell>
        <mxCell id="QywiRvyQ8ClWAGQjCXVQ-6" value="leishmaniasis.giemsa&lt;br&gt;Analysis Model" style="image;aspect=fixed;perimeter=ellipsePerimeter;html=1;align=center;shadow=0;dashed=0;fontColor=#000000;labelBackgroundColor=default;fontSize=12;spacingTop=0;image=img/lib/ibm/applications/automation_tools.svg;" vertex="1" parent="1">
          <mxGeometry x="720" y="350" width="60" height="60" as="geometry" />
        </mxCell>
        <mxCell id="QywiRvyQ8ClWAGQjCXVQ-7" value="malaria.romanowsky&lt;br&gt;Analysis Model" style="image;aspect=fixed;perimeter=ellipsePerimeter;html=1;align=center;shadow=0;dashed=0;fontColor=#000000;labelBackgroundColor=default;fontSize=12;spacingTop=0;image=img/lib/ibm/applications/automation_tools.svg;" vertex="1" parent="1">
          <mxGeometry x="720" y="460" width="60" height="60" as="geometry" />
        </mxCell>
        <mxCell id="QywiRvyQ8ClWAGQjCXVQ-11" value="mock.spots&lt;br&gt;Analysis Model" style="image;aspect=fixed;perimeter=ellipsePerimeter;html=1;align=center;shadow=0;dashed=0;fontColor=#000000;labelBackgroundColor=default;fontSize=12;spacingTop=0;image=img/lib/ibm/applications/automation_tools.svg;" vertex="1" parent="1">
          <mxGeometry x="720" y="570" width="60" height="60" as="geometry" />
        </mxCell>
        <mxCell id="QywiRvyQ8ClWAGQjCXVQ-13" value="analysis:requests&lt;br style=&quot;font-size: 12px;&quot;&gt;(Topic is disease ID)" style="html=1;strokeWidth=2;outlineConnect=0;dashed=0;align=center;fontSize=12;fillColor=#c0f5a9;verticalLabelPosition=bottom;verticalAlign=top;shape=mxgraph.eip.message_filter;" vertex="1" parent="1">
          <mxGeometry x="280" y="460" width="100" height="60" as="geometry" />
        </mxCell>
        <mxCell id="QywiRvyQ8ClWAGQjCXVQ-14" style="rounded=0;orthogonalLoop=1;jettySize=auto;html=1;entryX=0;entryY=0.5;entryDx=2.7;entryDy=0;entryPerimeter=0;exitX=1;exitY=0.5;exitDx=0;exitDy=0;exitPerimeter=0;" edge="1" parent="1" source="QywiRvyQ8ClWAGQjCXVQ-13" target="QywiRvyQ8ClWAGQjCXVQ-2">
          <mxGeometry relative="1" as="geometry">
            <Array as="points">
              <mxPoint x="430" y="490" />
              <mxPoint x="470" y="380" />
            </Array>
          </mxGeometry>
        </mxCell>
        <mxCell id="QywiRvyQ8ClWAGQjCXVQ-15" style="rounded=0;orthogonalLoop=1;jettySize=auto;html=1;entryX=0;entryY=0.5;entryDx=2.7;entryDy=0;entryPerimeter=0;exitX=1;exitY=0.5;exitDx=0;exitDy=0;exitPerimeter=0;" edge="1" parent="1" source="QywiRvyQ8ClWAGQjCXVQ-13" target="QywiRvyQ8ClWAGQjCXVQ-5">
          <mxGeometry relative="1" as="geometry">
            <mxPoint x="420" y="500" as="sourcePoint" />
            <mxPoint x="513" y="390" as="targetPoint" />
            <Array as="points">
              <mxPoint x="430" y="490" />
              <mxPoint x="470" y="600" />
            </Array>
          </mxGeometry>
        </mxCell>
        <mxCell id="QywiRvyQ8ClWAGQjCXVQ-16" style="edgeStyle=orthogonalEdgeStyle;rounded=0;orthogonalLoop=1;jettySize=auto;html=1;entryX=0;entryY=0.5;entryDx=2.7;entryDy=0;entryPerimeter=0;exitX=1;exitY=0.5;exitDx=0;exitDy=0;exitPerimeter=0;" edge="1" parent="1" source="QywiRvyQ8ClWAGQjCXVQ-13" target="QywiRvyQ8ClWAGQjCXVQ-4">
          <mxGeometry relative="1" as="geometry">
            <mxPoint x="420" y="430" as="sourcePoint" />
          </mxGeometry>
        </mxCell>
        <mxCell id="QywiRvyQ8ClWAGQjCXVQ-17" value="analysis_service" style="image;aspect=fixed;perimeter=ellipsePerimeter;html=1;align=center;shadow=0;dashed=0;fontColor=#000000;labelBackgroundColor=default;fontSize=12;spacingTop=3;image=img/lib/ibm/applications/application_logic.svg;" vertex="1" parent="1">
          <mxGeometry x="160" y="460" width="60" height="60" as="geometry" />
        </mxCell>
        <mxCell id="QywiRvyQ8ClWAGQjCXVQ-18" style="edgeStyle=orthogonalEdgeStyle;rounded=0;orthogonalLoop=1;jettySize=auto;html=1;entryX=0;entryY=0.5;entryDx=0;entryDy=0;entryPerimeter=0;" edge="1" parent="1" source="QywiRvyQ8ClWAGQjCXVQ-17" target="QywiRvyQ8ClWAGQjCXVQ-13">
          <mxGeometry relative="1" as="geometry" />
        </mxCell>
      </root>
    </mxGraphModel>
  </diagram>
</mxfile>
